<?xml version="1.0" encoding="utf-8"?>
<!-- Generator: Adobe Illustrator 25.0.0, SVG Export Plug-In . SVG Version: 6.00 Build 0)  -->
<svg version="1.1" id="Calque_1" xmlns="http://www.w3.org/2000/svg" xmlns:xlink="http://www.w3.org/1999/xlink" x="0px" y="0px"
	 viewBox="0 0 32 32" style="enable-background:new 0 0 32 32;" xml:space="preserve">
<path d="M32,2.92c0-1.05-0.43-1.83-1.22-2.46C30.35,0.12,29.85,0.07,29.34,0C20.41,0,11.49,0,2.56,0c-0.04,0.04-0.1,0.03-0.15,0.03
	C1.36,0.09,0.72,0.75,0.22,1.6C0.04,1.91,0.07,2.28,0,2.62c0,8.91,0,17.81,0,26.72c0.01,0.03,0.03,0.05,0.03,0.09
	c0.01,1.1,0.67,1.78,1.54,2.3c0.42,0.25,0.89,0.26,1.36,0.26c3.88,0.01,7.76,0,11.64,0c4.83,0,9.65-0.01,14.48,0.01
	c1.29,0,2.15-0.62,2.73-1.7c0.21-0.39,0.21-0.83,0.22-1.26c0.01-3.17,0-6.35,0-9.52C31.99,13.99,31.98,8.46,32,2.92z M18.27,17.74
	c-1.14-0.01-2.29,0-3.43-0.01c-0.25,0-0.31,0.07-0.31,0.31c0.01,3.59,0,7.18,0.01,10.77c0,0.29-0.08,0.36-0.36,0.36
	c-0.84-0.02-1.69-0.02-2.53,0c-0.26,0.01-0.3-0.08-0.3-0.31c0.01-1.8,0.01-3.6,0-5.4c0-1.8-0.01-3.6,0.01-5.4
	c0-0.26-0.07-0.33-0.33-0.32c-1.13,0.01-2.27,0-3.4,0.01c-0.22,0-0.28-0.07-0.27-0.28c0.01-0.66,0.02-1.31,0-1.97
	c-0.01-0.26,0.06-0.33,0.32-0.33c3.07,0.01,6.14,0.01,9.2,0.01c0.47,0,0.94,0.01,1.4,0c0.21-0.01,0.26,0.07,0.25,0.27
	c-0.01,0.68-0.01,1.35,0,2.03C18.55,17.68,18.49,17.74,18.27,17.74z M26.35,29.01c-2.05,0.55-4.09,0.44-6.11-0.24
	c-0.33-0.11-0.49-0.26-0.47-0.66c0.04-0.77,0.01-1.54,0.01-2.31c0-0.1-0.03-0.2,0.04-0.32c0.17,0.12,0.33,0.25,0.51,0.36
	c1.29,0.84,2.69,1.17,4.22,0.94c0.27-0.04,0.52-0.13,0.76-0.26c0.79-0.44,0.94-1.29,0.34-1.97c-0.29-0.33-0.67-0.56-1.06-0.76
	c-0.6-0.32-1.23-0.55-1.85-0.82c-0.76-0.34-1.45-0.77-2.03-1.36c-1.43-1.45-1.58-4.82,1.29-6.12c1.35-0.61,2.77-0.69,4.21-0.6
	c0.77,0.05,1.53,0.17,2.26,0.41c0.19,0.06,0.26,0.15,0.25,0.35c-0.01,0.86-0.01,1.73-0.01,2.65c-0.83-0.52-1.68-0.81-2.58-0.91
	c-0.63-0.07-1.27-0.08-1.89,0.09c-0.21,0.06-0.41,0.14-0.6,0.26c-0.7,0.46-0.81,1.25-0.24,1.87c0.34,0.37,0.77,0.6,1.21,0.81
	c0.76,0.36,1.54,0.69,2.28,1.07c1.02,0.53,1.87,1.24,2.24,2.39C29.87,26.19,28.71,28.38,26.35,29.01z"/>
</svg>
